# xmcd
#
# Track frame offsets: 
#        150
#        10853
#        21626
#        30254
#        38801
#        48306
#        56683
#        68291
#        78931
#        94005
#        103280
#        118229
#
# Disc length: 1804 seconds
#
# Revision: 1
# Processed by: cddbd v1.5.2PL0 Copyright (c) Steve Scherf et al.
# Submitted via: ExactAudioCopyFreeDBPlugin 1.0
#
DISCID=92070a0c
DTITLE=Elvis Presley - The Christmas Album
DYEAR=1900
DGENRE=Blues
TTITLE0=Santa Claus Is Back In Town
TTITLE1=White Christmas
TTITLE2=Here Comes Santa Claus
TTITLE3=I'll Be Home For Christmas
TTITLE4=Blue Christmas
TTITLE5=Santa Bring My Baby Back (To Me)
TTITLE6=Oh Little Town Of Bethlehem
TTITLE7=Silent Night
TTITLE8=(There'll Be) peace In The Valley (For Me)
TTITLE9=I Belive
TTITLE10=Take My Hand, Precious Lord
TTITLE11=It Is No Secret (What God Can Do)
EXTD=
EXTT0=
EXTT1=
EXTT2=
EXTT3=
EXTT4=
EXTT5=
EXTT6=
EXTT7=
EXTT8=
EXTT9=
EXTT10=
EXTT11=
PLAYORDER=
